<svg width="55" height="53" viewBox="0 0 55 53" fill="none" xmlns="http://www.w3.org/2000/svg">
<rect width="55" height="53" rx="26.5" fill="#3F3D56"/>
<path d="M13.048 33.432C12.196 33.432 11.338 33.336 10.474 33.144C9.622 32.94 8.92 32.664 8.368 32.316C8.224 31.884 8.116 31.452 8.044 31.02C7.972 30.588 7.882 29.97 7.774 29.166V29.112C7.798 28.968 7.876 28.86 8.008 28.788C8.464 29.064 8.902 29.274 9.322 29.418C9.742 29.55 10.204 29.616 10.708 29.616H11.14L11.428 29.634C11.704 29.634 11.986 29.592 12.274 29.508C12.43 29.448 12.538 29.334 12.598 29.166L11.644 28.698C10.912 28.35 10.252 27.978 9.664 27.582C9.052 27.138 8.614 26.574 8.35 25.89C8.218 25.518 8.152 25.11 8.152 24.666C8.152 23.586 8.482 22.716 9.142 22.056C9.718 21.468 10.498 21.048 11.482 20.796C12.334 20.592 13.27 20.49 14.29 20.49C14.89 20.49 15.718 20.556 16.774 20.688C16.882 20.712 17.032 20.736 17.224 20.76L17.764 20.868C18.172 20.94 18.472 20.976 18.664 20.976C18.676 20.976 18.694 20.994 18.718 21.03C18.754 21.066 18.784 21.096 18.808 21.12C18.856 21.204 18.904 21.246 18.952 21.246H18.97H18.988L19.024 21.624C19.024 21.804 19.042 21.996 19.078 22.2C19.114 22.5 19.132 22.824 19.132 23.172C19.132 23.472 19.114 23.688 19.078 23.82C19.018 24.06 18.91 24.234 18.754 24.342L17.08 24.126H16.9H16.648C16.24 24.126 15.772 24.168 15.244 24.252L14.65 24.378C14.506 24.402 14.434 24.426 14.434 24.45C14.434 24.738 14.62 25.008 14.992 25.26C15.172 25.356 15.352 25.44 15.532 25.512C15.712 25.572 15.826 25.614 15.874 25.638C16.762 25.89 17.53 26.328 18.178 26.952C18.478 27.24 18.712 27.546 18.88 27.87C19.048 28.194 19.132 28.506 19.132 28.806C19.132 28.986 19.108 29.178 19.06 29.382C18.976 30.282 18.634 31.062 18.034 31.722C17.446 32.31 16.708 32.742 15.82 33.018C15.052 33.294 14.128 33.432 13.048 33.432ZM30.3047 33.144C30.2327 33.06 30.1967 33.012 30.1967 33L28.3067 30.822C28.2707 30.786 28.2107 30.714 28.1267 30.606C28.0427 30.498 27.9647 30.408 27.8927 30.336L27.6227 30.066C27.5387 30.006 27.4847 29.976 27.4607 29.976C27.4127 29.976 27.3767 29.994 27.3527 30.03C27.3287 30.054 27.3167 30.084 27.3167 30.12V30.372V30.768C27.3167 30.96 27.3047 31.11 27.2807 31.218V31.686C27.2687 31.794 27.2627 31.926 27.2627 32.082V32.316V32.586V32.658C27.2627 32.778 27.2207 32.844 27.1367 32.856C27.0767 32.904 26.9867 32.916 26.8667 32.892C26.2427 32.916 25.7927 32.928 25.5167 32.928L23.2127 32.91H22.9067H22.5467C22.3907 32.91 22.2827 32.904 22.2227 32.892H22.0967L21.2867 32.82L21.2327 32.676C21.2207 32.676 21.2147 32.61 21.2147 32.478C21.2147 32.274 21.2087 32.1 21.1967 31.956V31.236C21.1727 31.056 21.1607 30.786 21.1607 30.426L21.1247 29.04C21.1127 28.74 21.0827 28.29 21.0347 27.69L21.0167 27.24C20.9927 26.832 20.9807 26.532 20.9807 26.34V26.16C21.0047 26.088 21.0167 25.98 21.0167 25.836C21.0287 25.68 21.0347 25.5 21.0347 25.296L21.0167 24.936C21.0167 24.852 21.0107 24.786 20.9987 24.738C20.9867 24.678 20.9807 24.636 20.9807 24.612C20.9807 24.588 20.9867 24.516 20.9987 24.396C21.0107 24.276 21.0167 24.156 21.0167 24.036C21.0287 23.892 21.0347 23.712 21.0347 23.496V23.226V22.866C21.0227 22.662 21.0167 22.362 21.0167 21.966C20.9927 21.882 20.9807 21.762 20.9807 21.606V21.426C20.9447 21.15 21.0887 20.988 21.4127 20.94C21.5087 20.904 21.6467 20.886 21.8267 20.886H22.2227H24.2207H25.6967H26.6507H27.2267C27.3947 20.886 27.4967 20.988 27.5327 21.192C27.5447 21.228 27.5507 21.306 27.5507 21.426V21.696C27.5507 21.996 27.5387 22.446 27.5147 23.046L27.4967 23.532C27.4727 23.844 27.4607 24.06 27.4607 24.18C27.6047 24.18 27.7367 24.144 27.8567 24.072C27.9407 23.988 27.9827 23.946 27.9827 23.946C28.0067 23.934 28.0307 23.916 28.0547 23.892C28.0907 23.856 28.1207 23.826 28.1447 23.802C28.1927 23.778 28.3067 23.676 28.4867 23.496C28.7867 23.196 29.2787 22.734 29.9627 22.11C30.6227 21.486 31.1387 21.03 31.5107 20.742C31.7387 20.586 31.8827 20.502 31.9427 20.49C31.9667 20.49 32.0087 20.52 32.0687 20.58C32.1287 20.64 32.1707 20.682 32.1947 20.706C32.1947 20.706 32.2487 20.76 32.3567 20.868C32.3807 20.928 32.4107 20.964 32.4467 20.976L32.5547 21.102C32.6627 21.186 32.7347 21.258 32.7707 21.318L32.9867 21.516C33.0227 21.552 33.0527 21.588 33.0767 21.624C33.1007 21.648 33.1187 21.666 33.1307 21.678C33.2027 21.798 33.3947 22.056 33.7067 22.452C33.9467 22.728 34.1267 22.998 34.2467 23.262V23.298C34.2467 23.466 34.0787 23.73 33.7427 24.09L33.3467 24.486C33.2027 24.618 33.1007 24.72 33.0407 24.792C33.0287 24.792 33.0107 24.804 32.9867 24.828C32.9627 24.852 32.9327 24.882 32.8967 24.918L32.1767 25.476C32.1767 25.476 32.0567 25.596 31.8167 25.836L31.4927 26.088C31.4687 26.1 31.4207 26.136 31.3487 26.196C31.2887 26.244 31.2347 26.274 31.1867 26.286C31.1507 26.31 31.1087 26.34 31.0607 26.376C31.0127 26.4 30.9827 26.424 30.9707 26.448C30.9467 26.46 30.9347 26.514 30.9347 26.61C30.9347 26.802 31.0307 26.982 31.2227 27.15C31.3067 27.246 31.3907 27.318 31.4747 27.366L31.7267 27.582C31.9787 27.834 32.1047 27.96 32.1047 27.96C32.3447 28.164 32.7767 28.554 33.4007 29.13C33.8807 29.562 34.2587 29.952 34.5347 30.3C34.6547 30.48 34.7147 30.612 34.7147 30.696C34.7147 30.768 34.7027 30.828 34.6787 30.876C34.6667 30.924 34.6307 30.978 34.5707 31.038C34.3307 31.242 34.1087 31.392 33.9047 31.488C33.7007 31.596 33.5027 31.734 33.3107 31.902C33.1187 32.058 32.9327 32.214 32.7527 32.37C32.5967 32.514 32.4167 32.646 32.2127 32.766L31.8527 32.946C31.8527 32.946 31.7987 32.982 31.6907 33.054C31.5827 33.126 31.5047 33.186 31.4567 33.234C31.2767 33.342 31.0907 33.396 30.8987 33.396C30.7907 33.396 30.6767 33.372 30.5567 33.324L30.3047 33.144ZM37.1899 33.198C36.9379 33.198 36.7759 32.964 36.7039 32.496C36.6679 32.292 36.6499 32.106 36.6499 31.938V31.542C36.6139 31.146 36.5959 30.762 36.5959 30.39C36.5479 29.286 36.5059 28.506 36.4699 28.05C36.4699 27.846 36.4579 27.63 36.4339 27.402C36.4099 27.162 36.3919 26.994 36.3799 26.898V21.21C36.3799 21.102 36.4219 21.036 36.5059 21.012H36.6139L36.6679 21.03C37.0879 21.03 37.6399 21.012 38.3239 20.976C39.2359 20.952 39.9979 20.94 40.6099 20.94H40.7899C40.8619 20.952 40.9819 20.958 41.1499 20.958H41.4739H41.6539C42.0139 20.958 42.2959 20.964 42.4999 20.976H44.3539C44.5819 21 44.9539 21.012 45.4699 21.012C45.5659 21.012 45.6379 21.018 45.6859 21.03C45.7819 21.054 45.8899 21.066 46.0099 21.066C46.0579 21.066 46.1059 21.048 46.1539 21.012C46.4299 21.012 46.5799 21.264 46.6039 21.768C46.6279 21.936 46.6399 22.062 46.6399 22.146C46.6399 22.218 46.6279 22.362 46.6039 22.578C46.5919 22.77 46.5859 23.076 46.5859 23.496C46.5859 23.628 46.4719 23.706 46.2439 23.73C46.1839 23.742 46.0819 23.748 45.9379 23.748H45.6859H44.8759L44.3359 23.766C44.2159 23.802 44.0299 23.82 43.7779 23.82C43.5259 23.82 43.3819 23.814 43.3459 23.802C43.3099 23.814 43.2799 23.826 43.2559 23.838C43.2439 23.85 43.2319 23.856 43.2199 23.856C43.2199 23.88 43.2139 23.904 43.2019 23.928C43.1899 23.952 43.1839 23.988 43.1839 24.036C43.1719 24.12 43.1419 24.432 43.0939 24.972C43.0819 25.128 43.0759 25.404 43.0759 25.8L43.0579 25.836C43.0579 25.884 43.0819 25.938 43.1299 25.998H45.2899C45.4339 25.998 45.5359 26.016 45.5959 26.052C45.6679 26.088 45.7219 26.154 45.7579 26.25C45.8059 26.394 45.8299 26.766 45.8299 27.366V28.23V28.716C45.8059 28.824 45.7699 28.896 45.7219 28.932C45.6859 28.968 45.6319 28.986 45.5599 28.986C45.4639 28.986 45.3739 28.998 45.2899 29.022L44.4799 29.076H44.1199C43.9399 29.076 43.8199 29.088 43.7599 29.112C43.6759 29.136 43.5619 29.154 43.4179 29.166H43.1659C42.9739 29.166 42.8419 29.19 42.7699 29.238C42.7099 29.25 42.6499 29.31 42.5899 29.418C42.5899 30.51 42.5779 31.254 42.5539 31.65C42.5419 32.226 42.4819 32.646 42.3739 32.91C42.1579 32.91 41.8459 32.922 41.4379 32.946C41.2459 32.946 41.1199 32.958 41.0599 32.982H40.8799H40.8439C40.7959 32.982 40.7599 32.976 40.7359 32.964C40.7119 32.952 40.6879 32.946 40.6639 32.946L40.6099 32.928C40.6099 32.916 40.5859 32.91 40.5379 32.91C40.5259 32.91 40.5019 32.916 40.4659 32.928C40.4419 32.94 40.4179 32.958 40.3939 32.982H38.8999C38.8879 32.994 38.8579 33 38.8099 33C38.7739 33.012 38.7199 33.03 38.6479 33.054L37.5499 33.18L37.1899 33.198Z" fill="white"/>
</svg>
